<svg width="24" height="24" viewBox="0 0 24 24" fill="none" xmlns="http://www.w3.org/2000/svg">
<path d="M23.1376 14.5873C23.8821 11.7264 23.4709 8.68745 21.9928 6.12734C20.5148 3.56722 18.0886 1.69162 15.2387 0.905982L15.1772 0.889507L15.1214 0.882778C12.2517 0.118137 9.19584 0.522614 6.62389 2.00753C4.05194 3.49245 2.17375 5.93662 1.40109 8.80418L1.37899 8.85592L1.36252 8.9174C0.617972 11.7783 1.02919 14.8172 2.50727 17.3773C3.98535 19.9375 6.41156 21.8131 9.26141 22.5987C9.27678 22.6028 9.29778 22.6167 9.3229 22.6152L9.37875 22.6219C12.2485 23.3865 15.3043 22.9821 17.8762 21.4971C20.4482 20.0122 22.3264 17.5681 23.099 14.7005L23.1211 14.6488C23.135 14.6278 23.1335 14.6026 23.1376 14.5873ZM3.51989 17.3124L8.17777 14.6232C9.30337 16.7691 9.63233 19.2444 9.10628 21.6099C6.79381 20.8845 4.81406 19.3615 3.51989 17.3124ZM2.1413 9.54616C4.45285 10.2733 6.43205 11.7959 7.72769 13.8436L3.06981 16.5328C1.94232 14.3875 1.61327 11.9115 2.1413 9.54616ZM20.9802 6.19227L16.3223 8.88149C15.1967 6.73556 14.8678 4.26024 15.3938 1.89481C17.7063 2.6202 19.686 4.14317 20.9802 6.19227ZM15.5428 9.33157L12.4148 11.1375L7.46955 2.57209C9.6371 1.44398 12.1344 1.12082 14.5177 1.66005C13.9305 4.25751 14.2942 6.97942 15.5428 9.33157ZM11.6352 11.5876L8.50725 13.3935C7.09452 11.1362 4.91912 9.46022 2.37605 8.67004C3.10072 6.33642 4.62923 4.33527 6.68999 3.02217L11.6352 11.5876ZM8.95733 14.1731L12.0853 12.3672L17.0306 20.9326C14.863 22.0607 12.3657 22.3839 9.9824 21.8446C10.5696 19.2472 10.2059 16.5253 8.95733 14.1731ZM12.8649 11.9171L15.9929 10.1111C17.4056 12.3685 19.581 14.0445 22.1241 14.8346C21.3994 17.1683 19.8709 19.1694 17.8101 20.4825L12.8649 11.9171ZM16.7724 9.66105L21.4303 6.97183C22.5578 9.11716 22.8868 11.5932 22.3588 13.9585C20.0473 13.2314 18.0681 11.7088 16.7724 9.66105Z" fill="#929EAA" stroke="#929EAA" stroke-width="0.5"/>
</svg>
