<svg width="40" height="39" viewBox="0 0 40 39" fill="none" xmlns="http://www.w3.org/2000/svg">
<path fill-rule="evenodd" clip-rule="evenodd" d="M21.1471 1.66464C20.726 0.959588 21.2316 0.0245249 22.0484 0.110509C25.6925 0.494158 29.0441 1.85956 31.8338 3.93735C32.5792 4.49257 32.1084 5.61581 31.183 5.70224C30.9654 5.72256 30.7787 5.74704 30.6228 5.77297C30.3639 5.81604 30.0952 5.78771 29.8544 5.68325C28.7821 5.21808 26.5043 4.55417 23.1311 4.28739C22.7757 4.25928 22.4583 4.04943 22.2947 3.73265C21.8903 2.94953 21.4986 2.25308 21.1471 1.66464ZM36.3746 11.2639C36.3309 11.0589 36.2225 10.873 36.0658 10.7337C34.0296 8.92332 31.8918 7.20327 30.5851 6.19449C30.3287 5.99652 29.9919 5.93722 29.6873 6.04748C28.6771 6.41314 26.8426 7.17878 24.3817 8.43314C24.3683 8.43995 24.3619 8.45573 24.367 8.46983C25.1331 10.6041 25.6455 12.3769 25.972 13.7052C26.1875 14.582 25.2284 15.1298 24.5221 14.5673C23.305 13.5979 21.8077 12.4608 20.2849 11.4138C19.9552 11.1871 19.5207 11.1835 19.1896 11.408C16.5359 13.2071 14.695 15.0185 13.788 16.0898C13.7231 16.1663 13.6716 16.2521 13.6351 16.3456C13.157 17.5721 12.426 20.204 12.1773 23.6429C12.1485 24.0419 12.3688 24.4167 12.7299 24.5888C14.3981 25.3842 16.1315 26.1123 17.5796 26.6817C18.4199 27.0121 18.425 28.1165 17.5579 28.3683C16.2443 28.7497 14.4529 29.1924 12.2214 29.596C12.2067 29.5987 12.1962 29.6121 12.197 29.6271C12.3455 32.4687 12.6108 34.4753 12.8006 35.5079C12.8509 35.7815 13.0218 36.0149 13.2665 36.1472C14.4036 36.7622 16.4262 37.688 19.2262 38.5961C19.4256 38.6607 19.6404 38.6596 19.8393 38.5936C22.4258 37.7352 24.9849 36.7436 26.5117 36.1164C26.8115 35.9933 27.0313 35.7311 27.0881 35.412C27.2765 34.3537 27.5304 32.3832 27.6744 29.6271C27.6751 29.6121 27.6647 29.5987 27.65 29.596C25.4185 29.1924 23.6271 28.7497 22.3135 28.3683C21.4464 28.1165 21.4515 27.0121 22.2918 26.6817C23.7399 26.1123 25.4733 25.3842 27.1415 24.5888C27.5026 24.4167 27.7229 24.0418 27.694 23.6427C27.6066 22.4335 27.4595 21.3241 27.2848 20.3404C27.0984 19.2911 28.6066 18.3453 29.3672 19.0919C30.0542 19.7662 30.7638 20.4869 31.4362 21.2087C31.772 21.5693 32.3188 21.6421 32.7307 21.3717C33.8229 20.6547 34.7458 20.0341 35.4738 19.5365C36.1589 19.0682 37.0037 19.5678 36.7991 20.3721C36.4959 21.5645 35.9606 23.1544 35.0792 25.0445C34.9334 25.357 34.9531 25.7231 35.1306 26.0188C35.5773 26.7631 35.9577 27.475 36.268 28.1061C36.6417 28.866 37.7496 28.9402 38.0996 28.1691C39.2389 25.6595 39.8733 22.8722 39.8733 19.9367C39.8733 18.9426 39.8006 17.9654 39.6601 17.0103C39.572 16.4112 38.6368 16.5228 38.3012 17.0269C37.9401 17.5694 37.2156 17.0539 37.1618 16.4045C37.0548 15.1115 36.8223 13.3646 36.3746 11.2639ZM12.6212 35.9717C12.5501 35.8034 12.4374 35.6572 12.295 35.5427C11.319 34.7572 9.73533 33.1669 7.98117 30.6166C7.77912 30.3229 7.43897 30.1532 7.08284 30.17C6.22613 30.2102 5.4465 30.2198 4.77366 30.2109C3.95187 30.2001 3.40034 31.1069 3.88857 31.768C5.91335 34.5099 8.62402 36.7143 11.7672 38.1281C12.5962 38.501 13.3574 37.5867 12.9735 36.7628C12.8357 36.4669 12.7172 36.199 12.6212 35.9717ZM1.77286 28.1672C2.12283 28.9383 3.23048 28.8643 3.60421 28.1044C3.91439 27.4738 4.29445 26.7625 4.74079 26.0188C4.91826 25.7231 4.93799 25.3571 4.79222 25.0445C3.40713 22.0744 2.87676 19.8455 2.75845 18.7353C2.73652 18.5296 2.66595 18.3312 2.54246 18.1651C2.36167 17.922 2.15229 17.6295 1.9285 17.3014C1.41538 16.5493 0.234449 16.7364 0.130739 17.641C0.044379 18.3943 0 19.1603 0 19.9367C0 22.8715 0.634136 25.6582 1.77286 28.1672ZM2.80563 17.9465C2.80315 18.2528 2.95721 18.5357 3.20752 18.7121C3.96875 19.2486 5.31935 20.176 7.14075 21.3717C7.55262 21.6421 8.09933 21.5693 8.43515 21.2088C10.1035 19.4177 12.0002 17.6346 13.2159 16.5456C13.3781 16.4003 13.4892 16.2071 13.5334 15.9939C13.8627 14.4072 14.4724 11.7932 15.2102 9.38446C15.3546 8.91337 15.1442 8.40343 14.7041 8.18194C13.5371 7.59459 12.5382 7.10561 11.7433 6.72392C10.9951 6.36471 11.0054 5.3834 11.8042 5.15838C12.9885 4.82477 14.6331 4.49341 16.7106 4.31171C17.0542 4.28166 17.3613 4.08155 17.5287 3.77999C18.4707 2.08257 19.438 0.753992 19.9833 0.0990779C20.0161 0.0596631 19.988 0 19.9367 0C15.3306 0 11.0894 1.56201 7.71378 4.18521C7.08963 4.67023 8.14024 5.62987 8.92676 5.70853C9.60476 5.77633 9.1418 6.43811 8.6075 6.86097C7.32323 7.87734 5.61812 9.27625 3.97886 10.7337C3.82221 10.873 3.71379 11.0588 3.6701 11.2638C3.00657 14.3771 2.81562 16.7135 2.80563 17.9465ZM27.8961 38.2211C27.0451 38.5921 26.306 37.6277 26.6839 36.7797C26.7535 36.6235 26.8105 36.4841 26.8562 36.3622C26.9484 36.1168 27.1072 35.8989 27.3178 35.7428C28.2564 35.0475 29.9712 33.4066 31.89 30.617C32.092 30.3232 32.4324 30.1532 32.7886 30.17C33.646 30.2102 34.4262 30.2198 35.0994 30.2109C35.9212 30.2 36.4729 31.107 35.9846 31.7682C33.9149 34.5708 31.1286 36.812 27.8961 38.2211Z" fill="#4A66CD"/>
</svg>
