<svg width="24" height="24" viewBox="0 0 24 24" fill="none" xmlns="http://www.w3.org/2000/svg">
<path d="M12.25 0.500008C6.03687 0.500008 1 5.53687 1 11.75C1 17.9631 6.03687 23 12.25 23C18.4631 23 23.5 17.9631 23.5 11.75C23.493 5.5398 18.4602 0.506966 12.25 0.500008ZM20.9623 5.89631L20.1827 9.21052L16.0751 10.5796L12.625 7.82001V3.75379L16.5625 2.1789C18.3452 2.98658 19.8683 4.27345 20.9623 5.89631ZM21.025 17.5045L17.3061 18.0917L15.2811 15.4167L16.3127 11.2917L20.3748 9.938L22.7017 12.7302C22.5431 14.4351 21.9672 16.0748 21.025 17.5045ZM7.21039 18.0942L3.47504 17.5045C2.53278 16.0744 1.95709 14.4343 1.79871 12.7291L4.12378 9.9369L8.18579 11.2906L9.21741 15.4178L7.21039 18.0942ZM1.7533 11.6101C1.77325 9.93726 2.19531 8.29353 2.98376 6.81806L3.59204 9.40553L1.7533 11.6101ZM9.91779 15.125L8.92297 11.1417L12.25 8.48029L15.5778 11.1428L14.5822 15.125H9.91779ZM20.908 9.40406L21.5162 6.8166C22.3047 8.29206 22.7267 9.93562 22.7467 11.6087L20.908 9.40406ZM15.5399 1.78065L12.25 3.09644L8.94257 1.78669C11.0834 1.07313 13.3977 1.07111 15.5399 1.78065ZM7.91956 2.18751L11.875 3.75507V7.82001L8.42493 10.5796L4.31732 9.21052L3.53766 5.89631C4.62805 4.2793 6.14453 2.99574 7.91956 2.18751ZM4.10162 18.3627L7.14996 18.8442L8.99347 21.7318C7.07343 21.1012 5.37531 19.9317 4.10162 18.3627ZM10.0687 22.0206L7.83093 18.5172L9.8125 15.875H14.6875L16.6974 18.53L14.7476 21.9473C13.2137 22.3251 11.6143 22.3507 10.069 22.0224L10.0687 22.0206ZM15.7892 21.6346L17.3876 18.8375L20.3998 18.3623C19.1897 19.8526 17.5954 20.984 15.7892 21.6346Z" fill="#929EAA" stroke="#929EAA" stroke-width="0.5"/>
</svg>
