<svg width="24" height="24" viewBox="0 0 24 24" fill="none" xmlns="http://www.w3.org/2000/svg">
<path d="M2.30175 7.06918C3.02069 7.06918 3.6035 6.48637 3.6035 5.76743C3.6035 5.0485 3.02069 4.46568 2.30175 4.46568C1.58281 4.46568 1 5.0485 1 5.76743C1 6.48637 1.58281 7.06918 2.30175 7.06918Z" stroke="#929EAA" stroke-miterlimit="10"/>
<path d="M13.1489 3.66233C13.903 3.66233 14.5144 3.05099 14.5144 2.29686C14.5144 1.54273 13.903 0.931389 13.1489 0.931389C12.3948 0.931389 11.7834 1.54273 11.7834 2.29686C11.7834 3.05099 12.3948 3.66233 13.1489 3.66233Z" stroke="#929EAA" stroke-miterlimit="10"/>
<path d="M13.1918 13.5347C12.346 14.6204 11.4464 15.6631 10.4963 16.6589C10.3338 16.8101 10.1365 16.9189 9.92192 16.9757L5.46911 18.1773C5.27351 18.2337 5.06355 18.2107 4.88484 18.1132C4.70612 18.0157 4.5731 17.8516 4.51465 17.6566C4.51957 17.4458 4.58864 17.2415 4.71266 17.071C4.83668 16.9004 5.00974 16.7718 5.20876 16.7021C5.20876 16.7021 7.75218 15.541 9.10127 14.6949C9.54372 14.4162 9.89496 14.0142 10.1117 13.5383C10.561 12.6353 10.8885 11.6768 11.0858 10.6877C11.215 9.65129 10.5965 7.6222 10.5965 7.6222" stroke="#929EAA" stroke-linecap="round" stroke-linejoin="round"/>
<path d="M12.0939 15.1232C12.0939 15.1232 12.1275 15.891 12.1166 16.7263C12.1027 17.7886 11.7768 18.8234 11.1795 19.7021L9.67744 21.9087C9.55148 22.0814 9.49902 22.297 9.53152 22.5084C9.56401 22.7197 9.67881 22.9096 9.85085 23.0365C10.0564 23.139 10.2892 23.1732 10.5156 23.1342C10.7419 23.0953 10.9499 22.9852 11.1094 22.8199C11.1094 22.8199 12.8371 20.6716 13.6801 19.4972C13.9575 19.1111 14.1555 18.6738 14.2627 18.2105L14.7606 16.0626C14.8968 15.4338 14.9678 14.7926 14.9723 14.1492C15.0028 13.4596 15.0383 12.5707 15.0365 11.9749C15.0365 11.7013 15.2322 8.82518 15.2322 8.72231M2.69214 4.4229L5.85958 5.81113C6.37583 5.99078 6.93236 6.02075 7.46492 5.89761L8.41938 5.59402C8.97313 5.43269 9.53909 5.3167 10.1117 5.24719L14.8844 4.9436C15.4561 4.93003 16.0265 5.00308 16.5763 5.16025L23.562 7.45971" stroke="#929EAA" stroke-linecap="round" stroke-linejoin="round"/>
</svg>
