<svg width="91" height="37" viewBox="0 0 91 37" fill="none" xmlns="http://www.w3.org/2000/svg">
<rect x="0.600098" y="0.274414" width="90" height="36.2903" rx="4" fill="#123951"/>
<g clip-path="url(#clip0_2739_38858)">
<path d="M35.4491 13.4761L34.9918 16.2734C34.2474 15.9648 33.4632 15.7625 32.6625 15.6725C30.9926 15.6725 29.4716 16.8531 29.4716 18.5549C29.4716 20.6821 30.7905 21.2139 32.2849 21.1448C32.857 21.1134 33.4181 20.9745 33.9388 20.7353L34.9067 20.4268L35.3321 23.0327L34.5504 23.3358C33.5495 23.7866 32.4558 23.9926 31.3595 23.9367C27.6369 23.857 25.9351 21.1448 26.1745 18.3847C26.2554 17.5367 26.509 16.7143 26.9196 15.968C27.3303 15.2217 27.8893 14.5674 28.5623 14.0452C29.6483 13.3161 30.9348 12.9442 32.2423 12.9816C33.3233 13.0022 34.3966 13.1686 35.4332 13.4761H35.4491ZM65.3046 13.2262L63.2944 23.7453H66.3789L67.1606 19.6025L69.1708 23.7453H74.9622L78.5785 16.7627L78.972 20.7459L77.7276 20.2141L76.765 22.1552L79.3389 23.7506H82.2532L80.7642 13.2315H77.4351L72.1755 22.8519L69.9207 18.3475L74.8239 13.2315H71.1651L67.7243 16.6723L68.3784 13.2315L65.3046 13.2262ZM54.8068 13.2262L58.6624 13.1092C60.3748 13.072 62.2893 13.4921 62.8902 15.3215C63.0642 15.8696 63.0504 16.4601 62.851 16.9995C62.6516 17.5389 62.278 17.9964 61.7894 18.2996C63.4273 19.4589 63.0232 21.8574 61.566 22.9263C60.3695 23.8038 59.2474 23.8144 57.8434 23.7985L52.9721 23.7453L54.8068 13.2262ZM57.1148 15.598L56.833 17.2732H58.7528C59.2846 17.2732 59.8643 17.2732 60.0983 16.6563C60.1489 16.5292 60.1653 16.3909 60.1458 16.2554C60.1263 16.1199 60.0715 15.9919 59.987 15.8842C59.9024 15.7765 59.7911 15.6929 59.6641 15.6417C59.5371 15.5906 59.3989 15.5737 59.2633 15.5927L57.1148 15.598ZM56.1097 21.1714H58.1625C58.8006 21.1714 59.6037 21.0544 59.7579 20.2832C59.7737 20.1777 59.7684 20.0701 59.7425 19.9667C59.7165 19.8632 59.6703 19.7659 59.6065 19.6804C59.5427 19.5948 59.4626 19.5228 59.3709 19.4683C59.2791 19.4139 59.1775 19.3782 59.0719 19.3632C59.0083 19.3553 58.944 19.3553 58.8804 19.3632H56.4235L56.1097 21.1926V21.1714ZM47.5158 13.2315L41.7457 23.7453H43.3996C44.7929 23.6868 45.1173 23.2933 45.3673 22.9635C46.6223 20.8842 47.5423 18.9165 48.6591 16.7574L49.0314 20.8044L47.787 20.2726L46.8191 22.2296L49.7547 23.724H52.3445L50.8449 13.2315H47.5158ZM36.5925 13.2315H44.5111L43.9793 16.1564H41.6712L40.2247 23.7453H37.1509L38.5974 16.1724H36.082L36.5925 13.2315Z" fill="#2E9BFC"/>
<path d="M24.143 23.7398H26.7542L22.9677 18.0336L27.7965 13.2473H23.4995L13.927 22.873L15.6767 13.2261H13.3101L9.67261 15.6032V18.2995L11.8583 17.2837L11.5605 18.1719C11.2255 20.0279 10.8851 21.8945 10.5554 23.7398H17.5859L20.4948 20.6341L21.6861 22.4476C21.9609 22.8457 22.3278 23.1715 22.7555 23.3974C23.1833 23.6233 23.6593 23.7426 24.143 23.7452V23.7398ZM18.4687 17.1667L15.9319 13.2261H18.8303C19.2386 13.2493 19.6378 13.3556 20.0036 13.5385C20.3694 13.7213 20.694 13.977 20.9575 14.2897L21.1277 14.5237L18.4687 17.1667Z" fill="white"/>
</g>
<defs>
<clipPath id="clip0_2739_38858">
<rect width="72.5806" height="10.9658" fill="white" transform="translate(9.67261 12.9761)"/>
</clipPath>
</defs>
</svg>
