<svg width="32" height="32" viewBox="0 0 32 32" fill="none" xmlns="http://www.w3.org/2000/svg">
<path fill-rule="evenodd" clip-rule="evenodd" d="M15.4587 31.1267C23.9459 31.1267 30.8262 24.3578 30.8262 16.008C30.8262 7.65821 23.9459 0.889297 15.4587 0.889297C6.97137 0.889297 0.0910645 7.65821 0.0910645 16.008C0.0910645 24.3578 6.97137 31.1267 15.4587 31.1267Z" fill="white"/>
<path d="M13.3921 22.5767C13.1857 22.7742 13.015 22.9377 12.6414 22.9377L12.903 19.0834L20.0287 12.7571C20.3414 12.4841 19.9604 12.3508 19.5453 12.5987L10.7508 18.0571L6.95202 16.8907C6.13171 16.6436 6.12577 16.0889 7.13624 15.6902L21.939 10.0748C22.6151 9.77272 23.2677 10.2344 23.0095 11.2526L20.4885 22.9397C20.3126 23.7702 19.8024 23.9689 19.0958 23.5853L15.2556 20.794L13.4099 22.5597L13.3921 22.5767Z" fill="#4A66CD"/>
</svg>
