<svg width="24" height="24" viewBox="0 0 24 24" fill="none" xmlns="http://www.w3.org/2000/svg">
<path d="M12 0.75C9.77496 0.75 7.59989 1.4098 5.74984 2.64597C3.89979 3.88213 2.45785 5.63914 1.60636 7.69481C0.754875 9.75048 0.532087 12.0125 0.966171 14.1948C1.40025 16.3771 2.47171 18.3816 4.04505 19.955C5.61839 21.5283 7.62295 22.5998 9.80524 23.0338C11.9875 23.4679 14.2495 23.2451 16.3052 22.3936C18.3609 21.5422 20.1179 20.1002 21.354 18.2502C22.5902 16.4001 23.25 14.225 23.25 12C23.2466 9.01735 22.0603 6.15783 19.9512 4.04878C17.8422 1.93973 14.9827 0.753381 12 0.75ZM12.1202 11.58C11.531 10.9276 9.44772 8.35149 10.0783 5.20706C11.5289 5.00338 19.1325 4.33919 22.498 12.0779C22.4886 13.5943 22.1487 15.0904 21.502 16.4621C19.3308 10.4701 13.3353 11.3358 12.1202 11.58ZM7.01432 17.0332C6.57768 16.4531 1.65747 9.59559 7.13725 2.69833C8.37309 2.0494 9.72674 1.65543 11.1178 1.53983C7.04496 6.38513 10.7198 11.1124 11.5682 12.0821C11.2784 12.9603 10.0636 16.0371 7.01432 17.0332ZM22.3274 10.116C18.7153 4.13915 12.2502 4.24658 10.2895 4.43337C10.6874 3.33029 11.3259 2.32964 12.1587 1.50403C14.5876 1.54375 16.9278 2.42336 18.7816 3.99333C20.6354 5.56331 21.8883 7.72678 22.3274 10.116ZM5.48141 3.77756C1.77807 9.99131 5.27974 15.8398 6.23406 17.2288C5.09088 17.4228 3.91909 17.3639 2.80111 17.0563C1.60402 14.8838 1.21639 12.3571 1.70717 9.92562C2.19796 7.49416 3.53534 5.31562 5.48141 3.77754V3.77756ZM3.34871 17.9411C3.88211 18.0409 4.42336 18.093 4.96601 18.0967C9.96916 18.0967 11.8803 13.465 12.2787 12.3104C13.0995 12.1331 16.4262 11.5885 18.859 13.7402C18.4485 14.7548 15.1626 22.0961 6.52932 20.9584C5.27011 20.1857 4.18665 19.1579 3.34871 17.9411ZM12 22.5C10.7371 22.5007 9.48459 22.2724 8.30317 21.8262C15.4442 21.8055 18.6651 15.9436 19.4225 14.3127C20.1724 15.2056 20.7152 16.2535 21.0119 17.3812C20.0807 18.9408 18.7608 20.2323 17.1813 21.1295C15.6018 22.0267 13.8166 22.4989 12 22.5Z" fill="#929EAA" stroke="#929EAA" stroke-width="0.5"/>
</svg>
