<svg width="24" height="16" viewBox="0 0 24 16" fill="none" xmlns="http://www.w3.org/2000/svg">
<path d="M22.9882 10.9929C22.9334 9.7324 22.7142 8.33491 22.3853 7.01962C22.0565 5.75913 21.6455 4.58085 21.1522 3.67658C19.2341 0.306152 17.1516 0.826788 14.658 1.48443C13.8633 1.67625 13.0139 1.89546 12.137 1.97767H11.863C10.9861 1.89546 10.1367 1.67625 9.34201 1.48443C6.84844 0.85419 4.76589 0.306152 2.84775 3.70399C2.35452 4.60825 1.91609 5.78653 1.61467 7.04702C1.28584 8.36231 1.06663 9.75981 1.01182 11.0203C0.957021 12.4178 1.09403 13.4317 1.39545 14.1441C1.69687 14.8018 2.1353 15.2128 2.71074 15.3772C3.23138 15.5142 3.83422 15.4594 4.46447 15.1854C5.53314 14.747 6.76623 13.8153 7.97192 12.6918C8.82138 11.8698 10.4107 11.4587 12 11.4587C13.5893 11.4587 15.1786 11.8698 16.0281 12.6918C17.2338 13.8153 18.4669 14.747 19.5355 15.1854C20.1658 15.432 20.7686 15.5142 21.2893 15.3772C21.8373 15.2128 22.3031 14.8292 22.6045 14.1167C22.906 13.4317 23.043 12.4178 22.9882 10.9929ZM21.6729 13.7331C21.5085 14.1167 21.2893 14.3359 21.0152 14.4181C20.7138 14.5003 20.3302 14.4455 19.8918 14.2811C18.9327 13.8975 17.8092 13.048 16.7131 12.0068C15.6719 10.9655 13.8359 10.4449 12 10.4449C10.1641 10.4449 8.32814 10.9655 7.25947 11.952C6.13599 12.9932 5.01251 13.8701 4.08084 14.2263C3.64241 14.3907 3.25878 14.4729 2.95736 14.3633C2.68334 14.2811 2.46413 14.0619 2.29972 13.6783C2.0805 13.1576 1.97089 12.3082 2.0257 11.0477C2.0805 9.86941 2.27231 8.52672 2.60114 7.26623C2.90256 6.08795 3.28619 4.99188 3.75202 4.16982C5.25913 1.45703 7.01285 1.89546 9.0954 2.4435C9.94486 2.66271 10.8217 2.88193 11.7808 2.96414C11.8082 2.96414 11.8082 2.96414 11.8356 2.96414H12.137C12.1644 2.96414 12.1644 2.96414 12.1918 2.96414C13.1783 2.88193 14.0551 2.66271 14.9046 2.4435C16.9872 1.92286 18.7409 1.45703 20.248 4.16982C20.7138 4.99188 21.0974 6.06055 21.3989 7.26623C21.7003 8.52672 21.9195 9.84201 21.9743 11.0477C22.0291 12.3082 21.9195 13.1576 21.6729 13.7331Z" fill="#929EAA" stroke="#929EAA" stroke-width="0.2"/>
<path d="M9.47903 5.64953C9.20501 5.40291 8.87619 5.2111 8.49256 5.18369C8.46516 4.82747 8.30074 4.47124 8.05413 4.22463L8.02672 4.19722C7.7253 3.8958 7.34168 3.73139 6.90325 3.73139C6.46481 3.73139 6.05379 3.92321 5.77977 4.19722C5.53315 4.44384 5.34134 4.80007 5.31393 5.18369C4.93031 5.2111 4.60148 5.37551 4.32746 5.62213L4.30006 5.64953C3.99864 5.95095 3.83423 6.33458 3.83423 6.77301C3.83423 7.21144 4.02604 7.62247 4.30006 7.89649C4.57408 8.17051 4.9029 8.33492 5.31393 8.36232C5.34134 8.74595 5.50575 9.10217 5.77977 9.34879C6.08119 9.65021 6.46481 9.81462 6.90325 9.81462C7.34168 9.81462 7.75271 9.62281 8.02672 9.34879C8.27334 9.07477 8.46516 8.74595 8.49256 8.36232C8.87619 8.33492 9.23241 8.17051 9.47903 7.89649C9.78045 7.59507 9.94486 7.21144 9.94486 6.77301C9.94486 6.33458 9.75305 5.92355 9.47903 5.64953ZM8.79398 7.18404C8.68437 7.29364 8.54736 7.34845 8.38295 7.34845H7.99932C7.7253 7.34845 7.47869 7.56766 7.47869 7.86908V8.22531C7.47869 8.38972 7.42388 8.52673 7.31427 8.63634C7.20467 8.74595 7.06766 8.80075 6.90325 8.80075C6.73883 8.80075 6.60182 8.74595 6.49222 8.63634C6.38261 8.52673 6.32781 8.38972 6.32781 8.22531V7.84168C6.32781 7.56766 6.10859 7.32105 5.80717 7.32105H5.42354C5.25913 7.32105 5.12212 7.26624 5.01251 7.15663C4.93031 7.07443 4.8481 6.93742 4.8481 6.77301C4.8481 6.60859 4.9029 6.47159 5.01251 6.36198C5.01251 6.36198 5.01251 6.36198 5.03991 6.33458C5.14952 6.25237 5.28653 6.19757 5.42354 6.19757H5.80717C6.08119 6.19757 6.32781 5.97835 6.32781 5.67693V5.2933C6.32781 5.12889 6.38261 4.99188 6.49222 4.88227C6.60182 4.77267 6.73883 4.71786 6.90325 4.71786C7.06766 4.71786 7.20467 4.77267 7.31427 4.88227C7.31427 4.88227 7.31427 4.88227 7.34168 4.90968C7.42388 5.01928 7.47869 5.15629 7.47869 5.2933V5.67693C7.47869 5.95095 7.6979 6.19757 7.99932 6.19757H8.38295C8.54736 6.19757 8.68437 6.25237 8.79398 6.36198C8.90359 6.47159 8.95839 6.60859 8.95839 6.77301C8.95839 6.93742 8.90359 7.07443 8.79398 7.18404Z" fill="#929EAA" stroke="#929EAA" stroke-width="0.2"/>
<path d="M16.7679 5.78653C17.2976 5.78653 17.727 5.35714 17.727 4.82746C17.727 4.29779 17.2976 3.8684 16.7679 3.8684C16.2382 3.8684 15.8088 4.29779 15.8088 4.82746C15.8088 5.35714 16.2382 5.78653 16.7679 5.78653Z" fill="#929EAA" stroke="#929EAA" stroke-width="0.2"/>
<path d="M16.7679 9.67761C17.2976 9.67761 17.727 9.24822 17.727 8.71854C17.727 8.18886 17.2976 7.75948 16.7679 7.75948C16.2382 7.75948 15.8088 8.18886 15.8088 8.71854C15.8088 9.24822 16.2382 9.67761 16.7679 9.67761Z" fill="#929EAA" stroke="#929EAA" stroke-width="0.2"/>
<path d="M14.8223 7.73207C15.352 7.73207 15.7814 7.30268 15.7814 6.77301C15.7814 6.24333 15.352 5.81394 14.8223 5.81394C14.2927 5.81394 13.8633 6.24333 13.8633 6.77301C13.8633 7.30268 14.2927 7.73207 14.8223 7.73207Z" fill="#929EAA" stroke="#929EAA" stroke-width="0.2"/>
<path d="M18.7135 7.73207C19.2431 7.73207 19.6725 7.30268 19.6725 6.77301C19.6725 6.24333 19.2431 5.81394 18.7135 5.81394C18.1838 5.81394 17.7544 6.24333 17.7544 6.77301C17.7544 7.30268 18.1838 7.73207 18.7135 7.73207Z" fill="#929EAA" stroke="#929EAA" stroke-width="0.2"/>
</svg>
