<svg width="22" height="22" viewBox="0 0 22 22" fill="none" xmlns="http://www.w3.org/2000/svg">
<path d="M21.1326 17.8286C20.8959 17.5928 20.5815 17.4632 20.247 17.4632H14.5264C14.0731 17.4632 13.6511 17.2204 13.4243 16.8295L12.957 16.0239L17.6843 7.8735L19.6696 4.45107L20.4911 3.03476C20.6403 2.778 20.7192 2.48556 20.7192 2.1898C20.7192 1.58687 20.3942 1.02532 19.8706 0.72468C19.0623 0.260383 18.025 0.537648 17.5586 1.34279L16.7757 2.69265L14.7898 6.11594L11 12.6499L7.21016 6.11594L5.22438 2.69269L4.44193 1.34283C3.97505 0.537648 2.9378 0.260383 2.12947 0.724721C1.6059 1.02537 1.28086 1.58691 1.28086 2.18984C1.28086 2.48556 1.35977 2.778 1.50894 3.0348L2.3304 4.45107L4.31577 7.8735L9.04261 16.0235L8.57536 16.8295C8.34891 17.2204 7.92686 17.4632 7.4736 17.4632H1.75303C1.4185 17.4632 1.10412 17.5928 0.867008 17.8291C0.630266 18.0653 0.5 18.3791 0.5 18.7129C0.5 20.2494 1.75344 21.4996 3.29452 21.4996H8.08711C9.13219 21.4996 10.1061 20.9394 10.6293 20.0374L11 19.3984L11.3707 20.0374C11.8939 20.9394 12.8678 21.4996 13.9129 21.4996H18.7055C20.2466 21.4996 21.5 20.2494 21.5 18.7129C21.5 18.3791 21.3697 18.0653 21.1326 17.8286ZM18.2699 1.7538C18.5098 1.33913 19.0441 1.19681 19.4604 1.43593C19.73 1.59056 19.8973 1.87931 19.8973 2.1898C19.8973 2.34156 19.8566 2.49167 19.7801 2.62374L19.1703 3.67461L17.6867 2.75869L18.2699 1.7538ZM17.2749 3.46953V3.46912L18.7585 4.38504L17.185 7.09707L15.701 6.18197L17.2749 3.46953ZM2.21987 2.62379C2.14341 2.49171 2.10273 2.3416 2.10273 2.18984C2.10273 1.87935 2.26999 1.5906 2.53958 1.43597C2.67645 1.35722 2.82604 1.3199 2.97398 1.3199C3.2752 1.3199 3.56904 1.47576 3.73055 1.75384L4.3133 2.75877L2.82973 3.67461L2.21987 2.62379ZM3.25014 4.3998L3.24153 4.38504L4.7251 3.46912V3.46953L6.29908 6.18197L4.81509 7.09707L3.25014 4.3998ZM5.22685 7.80746L6.71083 6.89236L10.525 13.4682L9.5177 15.2052L5.22685 7.80746ZM10.5253 18.5796L9.91834 19.6264C9.54153 20.2757 8.83958 20.6793 8.08711 20.6793H3.29452C2.63162 20.6793 2.04395 20.3516 1.68601 19.8503H4.73572C4.96258 19.8503 5.1467 19.6666 5.1467 19.4402C5.1467 19.2134 4.96258 19.03 4.73572 19.03H1.34738C1.33053 18.9267 1.32191 18.8209 1.32191 18.713C1.32191 18.5981 1.3667 18.4903 1.44767 18.4095C1.52945 18.3283 1.63794 18.2836 1.75303 18.2836H7.47356C8.21906 18.2836 8.91399 17.8841 9.2867 17.2405L9.51765 16.8422L9.99233 16.0239L11 14.2869L11.4747 13.4686L15.2892 6.89236L16.7732 7.80746L12.4823 15.2056L12.0077 16.0243L11 17.7614L10.5253 18.5796ZM18.7055 20.6793H13.9129C13.1604 20.6793 12.4585 20.2757 12.0817 19.6264L11.4747 18.5796L12.4823 16.8426L12.7129 17.2404C13.0861 17.884 13.781 18.2835 14.5264 18.2835H20.247C20.362 18.2835 20.4705 18.3282 20.5519 18.409C20.6333 18.4902 20.6781 18.5981 20.6781 18.7129C20.6781 19.797 19.7933 20.6793 18.7055 20.6793Z" fill="#929EAA" stroke="#929EAA" stroke-width="0.5"/>
</svg>
