<svg width="190" height="38" viewBox="0 0 190 38" fill="none" xmlns="http://www.w3.org/2000/svg">
<path fill-rule="evenodd" clip-rule="evenodd" d="M20.1407 1.83126C19.7217 1.12492 20.2285 0.189732 21.0448 0.27999C24.4212 0.653333 27.5301 1.91423 30.1331 3.8242C30.8824 4.37408 30.4132 5.49501 29.4891 5.59504C29.3477 5.61035 29.2219 5.62747 29.1117 5.64538C28.8526 5.68751 28.5838 5.65888 28.3426 5.55518C27.3192 5.11502 25.1722 4.49298 22.0033 4.23963C21.6479 4.21122 21.3307 4.00156 21.1668 3.6849C20.8067 2.98879 20.4575 2.36533 20.1407 1.83126ZM34.5593 10.8807C34.5157 10.6756 34.4073 10.4899 34.2506 10.3507C32.3302 8.64397 30.3166 7.02305 29.0761 6.06465C28.8198 5.86659 28.4836 5.80738 28.1791 5.91808C27.2146 6.2688 25.4813 6.99397 23.1626 8.17582C23.15 8.18229 23.1439 8.19728 23.1487 8.21067C23.8534 10.174 24.3322 11.8153 24.6434 13.063C24.8619 13.9391 23.9051 14.4866 23.198 13.9252C22.0672 13.0275 20.6945 11.9876 19.2978 11.0261C18.9683 10.7992 18.5337 10.7957 18.2028 11.0205C15.7009 12.7205 13.9633 14.4295 13.1032 15.4442C13.0383 15.5208 12.9869 15.6063 12.9505 15.6998C12.4977 16.8642 11.8088 19.3481 11.5708 22.5924C11.5415 22.9914 11.7619 23.3659 12.1231 23.5379C13.6542 24.2668 15.2411 24.9355 16.5839 25.466C17.4237 25.7977 17.4279 26.9001 16.5599 27.1488C15.3237 27.5032 13.663 27.9093 11.6103 28.2806C11.5963 28.2831 11.5864 28.2959 11.5871 28.3101C11.7271 30.9899 11.9765 32.8879 12.1566 33.8752C12.2065 34.1488 12.3774 34.3824 12.6223 34.5144C13.7038 35.0975 15.6131 35.9696 18.2496 36.8256C18.4489 36.8903 18.6639 36.8893 18.8628 36.8232C21.3015 36.0133 23.7125 35.0797 25.1627 34.4846C25.4625 34.3616 25.6819 34.0999 25.7382 33.7808C25.9167 32.7695 26.1551 30.9068 26.2907 28.3101C26.2915 28.2959 26.2816 28.2831 26.2676 28.2806C24.2149 27.9093 22.5541 27.5032 21.3179 27.1488C20.45 26.9001 20.4542 25.7977 21.2939 25.466C22.6368 24.9355 24.2237 24.2668 25.7547 23.5379C26.116 23.3659 26.3363 22.9912 26.3071 22.5922C26.2302 21.5446 26.1063 20.5764 25.9586 19.7062C25.7802 18.6555 27.2981 17.708 28.0565 18.4568C28.6497 19.0424 29.2566 19.6611 29.8353 20.2814C30.1715 20.6416 30.7183 20.7144 31.1301 20.4439C32.1106 19.7999 32.9462 19.2386 33.6162 18.7814C34.3017 18.3136 35.1432 18.8131 34.9339 19.6162C34.6432 20.7321 34.1435 22.1983 33.337 23.9315C33.1915 24.2442 33.2112 24.61 33.3884 24.9059C33.7843 25.5671 34.1249 26.2009 34.4074 26.7695C34.7842 27.5279 35.8927 27.6008 36.2384 26.8278C37.2932 24.469 37.8797 21.8551 37.8797 19.1042C37.8797 18.1598 37.8106 17.2316 37.6771 16.3242C37.5934 15.7551 36.705 15.8611 36.3862 16.34C36.0432 16.8553 35.3549 16.3656 35.3039 15.7487C35.2025 14.5236 34.9825 12.8694 34.5593 10.8807ZM11.9958 34.3507C11.9246 34.1824 11.8119 34.0362 11.6697 33.9214C10.7447 33.1747 9.25201 31.6736 7.59829 29.2737C7.39599 28.9801 7.05617 28.8107 6.70002 28.8271C5.93933 28.8623 5.24317 28.872 4.63473 28.8659C3.81291 28.8575 3.26172 29.7652 3.7534 30.4238C5.64535 32.9579 8.15668 35.0026 11.0631 36.3335C11.8895 36.7119 12.6514 35.7994 12.2716 34.9736C12.1658 34.7436 12.0732 34.5335 11.9958 34.3507ZM1.64046 26.826C1.98605 27.5991 3.09434 27.5263 3.47117 26.768C3.75353 26.1997 4.0939 25.5665 4.48946 24.9059C4.66663 24.61 4.68636 24.2442 4.54085 23.9315C3.24021 21.1364 2.73751 19.0354 2.62216 17.9786C2.5997 17.7729 2.52904 17.5745 2.40569 17.4083C2.25589 17.2065 2.08588 16.9697 1.9044 16.7063C1.38779 15.9565 0.207658 16.1453 0.110049 17.0505C0.0373154 17.7251 0 18.4103 0 19.1042C0 21.8544 0.586194 24.4677 1.64046 26.826ZM2.66552 17.1898C2.66247 17.496 2.81627 17.7783 3.06665 17.9546C3.78818 18.4627 5.05094 19.3294 6.7476 20.4438C7.15941 20.7143 7.70634 20.6416 8.04248 20.2814C9.61462 18.5965 11.3942 16.923 12.5425 15.8938C12.7047 15.7485 12.8159 15.5552 12.8602 15.342C13.1719 13.8421 13.7445 11.3891 14.4373 9.12044C14.5812 8.64923 14.3708 8.13933 13.9307 7.91793C12.8827 7.39078 11.9788 6.94777 11.2478 6.59613C10.5 6.23635 10.5118 5.25786 11.3119 5.03755C12.4237 4.73142 13.9433 4.43102 15.8475 4.26288C16.1911 4.23255 16.498 4.03253 16.6657 3.73115C17.5564 2.1302 18.4687 0.877562 18.9841 0.258495C19.0153 0.221037 18.9886 0.164337 18.9398 0.164337C14.5641 0.164337 10.5349 1.64825 7.32806 4.1403C6.73513 4.60107 7.7332 5.51272 8.48038 5.58744C9.12448 5.65185 8.68467 6.28054 8.17709 6.68224C6.96018 7.64532 5.34552 8.96992 3.79191 10.3507C3.63524 10.4899 3.52684 10.6755 3.48322 10.8806C2.85978 13.8106 2.67723 16.0144 2.66552 17.1898ZM26.6251 36.4199C25.7768 36.7969 25.0395 35.8353 25.4037 34.9814C25.4429 34.8896 25.477 34.8048 25.5065 34.7272C25.5995 34.4822 25.7586 34.2643 25.9687 34.1076C26.8612 33.442 28.4743 31.8934 30.2793 29.2741C30.4816 28.9806 30.8217 28.8107 31.1778 28.8271C31.9391 28.8623 32.6358 28.8721 33.2446 28.8659C34.0665 28.8575 34.6179 29.7653 34.1261 30.4239C32.1928 33.0135 29.6126 35.0919 26.6251 36.4199Z" fill="white"/>
<path d="M55.9955 26.8941C54.0334 26.8941 52.3982 26.4433 51.0901 25.5418C49.782 24.6226 48.9954 23.3675 48.7302 21.7766H52.575C52.8932 23.0847 54.0687 23.7387 56.1016 23.7387C57.7456 23.7387 58.5676 23.341 58.5676 22.5455C58.5676 22.4395 58.5499 22.3422 58.5145 22.2539C58.4969 22.1655 58.4527 22.0859 58.382 22.0152C58.3289 21.9445 58.2671 21.8826 58.1964 21.8296C58.1256 21.7589 58.0196 21.697 57.8782 21.644C57.7544 21.591 57.6395 21.5468 57.5335 21.5114C57.4274 21.4761 57.2683 21.4319 57.0562 21.3788C56.8617 21.3258 56.685 21.2816 56.5259 21.2463C56.3844 21.2109 56.1812 21.1667 55.916 21.1137C55.6508 21.0607 55.421 21.0076 55.2266 20.9546C53.0523 20.4419 51.5321 19.8851 50.6659 19.2841C49.8174 18.6654 49.3931 17.7462 49.3931 16.5265C49.3931 15.0062 49.9676 13.8218 51.1166 12.9733C52.2833 12.1072 53.8389 11.6741 55.7834 11.6741C57.7279 11.6741 59.2393 12.0983 60.3176 12.9468C61.3959 13.7777 62.0677 14.909 62.3328 16.3408H58.488C58.1698 15.3509 57.2241 14.856 55.6508 14.856C54.0245 14.856 53.2114 15.2625 53.2114 16.0757C53.2114 16.3939 53.3793 16.6237 53.7152 16.7651C54.0511 16.9065 54.8112 17.1098 55.9955 17.375C57.1799 17.6401 58.1168 17.8876 58.8062 18.1174C59.4956 18.3295 60.1497 18.6124 60.7684 18.9659C61.3871 19.3194 61.829 19.7437 62.0942 20.2387C62.3593 20.7336 62.4919 21.3346 62.4919 22.0417C62.4919 23.615 61.882 24.8171 60.6623 25.6479C59.4426 26.4787 57.887 26.8941 55.9955 26.8941Z" fill="white"/>
<path d="M75.7974 22.6516L76.4338 25.7274C75.9919 26.0279 75.3555 26.3019 74.5247 26.5494C73.7115 26.7792 72.8984 26.8941 72.0852 26.8941C70.512 26.8941 69.2038 26.3992 68.1609 25.4092C67.1356 24.4193 66.623 22.9344 66.623 20.9546V15.5719H64.0244V11.9923H66.623V8.83688L70.4147 8.01489V11.9923H75.824V15.5719H70.4147V20.7425C70.4147 22.4925 71.1925 23.3675 72.7481 23.3675C73.4375 23.3675 74.454 23.1289 75.7974 22.6516Z" fill="white"/>
<path d="M89.0566 11.9923H92.8483L92.8218 26.5759H89.0301V24.6138C87.9164 26.134 86.3961 26.8941 84.4693 26.8941C82.5425 26.8941 80.9516 26.187 79.6965 24.7729C78.4414 23.341 77.8139 21.5114 77.8139 19.2841C77.8139 17.0568 78.4414 15.236 79.6965 13.8218C80.9693 12.39 82.5514 11.6741 84.4428 11.6741C86.3873 11.6741 87.9252 12.4607 89.0566 14.034V11.9923ZM85.3178 23.288C86.3961 23.288 87.2888 22.9168 87.9959 22.1743C88.703 21.4319 89.0566 20.4685 89.0566 19.2841C89.0566 18.0997 88.703 17.1363 87.9959 16.3939C87.2888 15.6514 86.3961 15.2802 85.3178 15.2802C84.2395 15.2802 83.3557 15.6514 82.6663 16.3939C81.9769 17.1363 81.6321 18.0997 81.6321 19.2841C81.6321 20.4685 81.9769 21.4319 82.6663 22.1743C83.3734 22.9168 84.2572 23.288 85.3178 23.288Z" fill="white"/>
<path d="M105.469 11.9923H109.499L104.488 26.5759H99.9537L94.9422 11.9923H98.9726L102.208 22.466L105.469 11.9923Z" fill="white"/>
<path d="M129.036 11.6741C130.591 11.6741 131.82 12.1779 132.721 13.1855C133.623 14.1931 134.074 15.5807 134.074 17.3484V26.5759H130.282V18.1704C130.282 17.2159 130.078 16.4999 129.672 16.0226C129.283 15.5277 128.647 15.2802 127.763 15.2802C126.773 15.2802 126.022 15.5984 125.509 16.2348C124.996 16.8535 124.74 17.7462 124.74 18.9129V26.5759H120.948V18.1704C120.948 17.2159 120.745 16.4999 120.338 16.0226C119.949 15.5277 119.313 15.2802 118.429 15.2802C117.439 15.2802 116.679 15.5984 116.149 16.2348C115.636 16.8535 115.38 17.7462 115.38 18.9129L115.406 26.5759H111.588V11.9923H115.406V13.9279C116.467 12.4253 117.908 11.6741 119.728 11.6741C121.85 11.6741 123.326 12.5933 124.157 14.4317C125.288 12.5933 126.914 11.6741 129.036 11.6741Z" fill="white"/>
<path d="M147.863 11.9923H151.654L151.628 26.5759H147.836V24.6138C146.722 26.134 145.202 26.8941 143.275 26.8941C141.348 26.8941 139.758 26.187 138.502 24.7729C137.247 23.341 136.62 21.5114 136.62 19.2841C136.62 17.0568 137.247 15.236 138.502 13.8218C139.775 12.39 141.357 11.6741 143.249 11.6741C145.193 11.6741 146.731 12.4607 147.863 14.034V11.9923ZM144.124 23.288C145.202 23.288 146.095 22.9167 146.802 22.1743C147.509 21.4319 147.863 20.4685 147.863 19.2841C147.863 18.0997 147.509 17.1363 146.802 16.3939C146.095 15.6514 145.202 15.2802 144.124 15.2802C143.045 15.2802 142.162 15.6514 141.472 16.3939C140.783 17.1363 140.438 18.0997 140.438 19.2841C140.438 20.4685 140.783 21.4319 141.472 22.1743C142.179 22.9167 143.063 23.288 144.124 23.288Z" fill="white"/>
<path d="M165.521 22.6516L166.158 25.7274C165.716 26.0279 165.079 26.3019 164.248 26.5494C163.435 26.7792 162.622 26.8941 161.809 26.8941C160.236 26.8941 158.928 26.3992 157.885 25.4092C156.859 24.4193 156.347 22.9344 156.347 20.9546V15.5719H153.748V11.9923H156.347V8.83688L160.138 8.01489V11.9923H165.548V15.5719H160.138V20.7425C160.138 22.4925 160.916 23.3675 162.472 23.3675C163.161 23.3675 164.178 23.1289 165.521 22.6516Z" fill="white"/>
<path d="M170.542 5.25725C171.232 5.25725 171.798 5.46937 172.239 5.89363C172.681 6.3002 172.902 6.83052 172.902 7.48457C172.902 8.13863 172.681 8.67778 172.239 9.10203C171.798 9.52629 171.232 9.73841 170.542 9.73841C169.871 9.73841 169.305 9.52629 168.845 9.10203C168.403 8.67778 168.183 8.13863 168.183 7.48457C168.183 6.84819 168.403 6.31788 168.845 5.89363C169.305 5.46937 169.871 5.25725 170.542 5.25725ZM168.633 26.5759V11.9923H172.425V26.5759H168.633Z" fill="white"/>
<path d="M182.708 26.8941C180.534 26.8941 178.722 26.1694 177.272 24.7198C175.841 23.2703 175.125 21.4584 175.125 19.2841C175.125 17.1098 175.841 15.2979 177.272 13.8484C178.722 12.3988 180.543 11.6741 182.735 11.6741C184.573 11.6741 186.173 12.2044 187.534 13.265C188.913 14.308 189.735 15.731 190 17.534H186.102C185.89 16.7739 185.475 16.1906 184.856 15.784C184.255 15.3774 183.548 15.1741 182.735 15.1741C181.586 15.1741 180.666 15.5542 179.977 16.3143C179.288 17.0744 178.952 18.0644 178.969 19.2841C178.952 20.5038 179.288 21.4937 179.977 22.2539C180.684 23.014 181.595 23.394 182.708 23.394C183.521 23.394 184.237 23.1907 184.856 22.7842C185.475 22.3776 185.89 21.7854 186.102 21.0076H190C189.717 22.8637 188.886 24.3132 187.508 25.3562C186.146 26.3815 184.547 26.8941 182.708 26.8941Z" fill="white"/>
</svg>
