<svg width="22" height="22" viewBox="0 0 22 22" fill="none" xmlns="http://www.w3.org/2000/svg">
<mask id="mask0_2739_35873" style="mask-type:alpha" maskUnits="userSpaceOnUse" x="0" y="0" width="22" height="22">
<circle cx="11" cy="11" r="11" fill="#C4C4C4"/>
</mask>
<g mask="url(#mask0_2739_35873)">
<path d="M-5 0H28V22H-5V0Z" fill="#3E4EB8"/>
<path d="M-2.25 6.53125L-1.5625 7.5625L-0.875 7.21875L-0.1875 7.42444L0.84375 8.25L1.1875 8.9375L1.875 11L2.5625 11.3438L3.25 12.0312L4.28125 12.7188L4.625 14.0938L5.3125 14.4375V16.1562L4.96875 17.875L5.3125 18.5625H6V17.5312L6.6875 16.5L8.0625 15.4688L8.75 14.4375L8.0625 13.4062L7.03125 12.7188L5.65625 12.0312H4.625L4.28125 11.6875L3.59375 11.3438L4.28125 10.6562L5.3125 9.96875L6.34375 8.9375L6.6875 8.25L6.34375 7.21875L5.65625 6.875H4.625L4.28125 7.5625L3.9375 7.21875L4.625 6.53125V5.5L3.59375 5.15625L2.5625 5.5H1.53125L-0.1875 5.15625L-1.21875 4.8125L-2.25 5.5V6.53125Z" fill="#FFC624"/>
<path d="M6.6875 3.4375V5.5C6.6875 5.775 6.91667 6.07292 7.03125 6.1875L7.375 7.42444L8.0625 7.21875L8.40625 6.1875L9.09375 5.69029L9.4375 4.8125V3.4375H6.6875Z" fill="#FFC624"/>
<path d="M9.78125 11C9.66667 11.2292 9.4375 11.7563 9.4375 12.0312L10.282 12.375H11.1562L11.5 13.0625L12.5312 16.1562L13.2188 15.4688L14.5938 13.4062V12.0312L13.5625 11.3438L12.875 11L11.8438 10.8542L11.5 9.96875H13.2188L13.5625 10.6562L14.25 11.6875L14.9375 11.3438H15.9688L16.6562 12.0312H18.0312L19.0625 12.7188V12.0312L19.75 11.3438L20.0938 10.6562L21.4688 9.96875L21.8125 9.28125L21.6503 7.90625L22.1562 7.5625L22.8438 7.90625L23.5312 7.5625L24.3478 6.875L25.5938 5.69029L24.9062 5.15625L24.3478 4.8125H22.8438L22.5 4.125H20.7812L20.0938 3.4375H18.0312L16.6562 4.8125L15.2812 5.5L14.25 5.69029L13.9062 5.5L13.2188 4.8125H12.875L11.8438 5.84375L11.5 6.53125V7.5625L11.1562 8.59375L10.4688 9.28125L10.125 9.96875L9.78125 11Z" fill="#FFC624"/>
<path d="M18.7188 13.75V13.0625H20.4375L20.0938 13.75H18.7188Z" fill="#FFC624"/>
<path d="M20.4375 14.7812L19.75 15.4688L20.0938 16.5H21.125L21.8125 17.1875L22.5 16.5L23.1875 16.1562V15.4688L22.8438 14.7812L22.5 13.75H21.8125L21.6503 14.337L20.4375 14.7812Z" fill="#FFC624"/>
</g>
</svg>
