<svg width="22" height="24" viewBox="0 0 22 24" fill="none" xmlns="http://www.w3.org/2000/svg">
<path d="M20.8756 20.7989L15.8812 15.8045C15.8167 15.7392 15.744 15.6827 15.6649 15.6361C15.3692 15.4601 15.0093 15.429 14.6878 15.5516C13.6296 14.0663 13.3195 12.2485 13.1491 11.2458L13.1164 11.0555C13.1423 10.8671 13.1625 10.6751 13.1701 10.4743C13.1948 9.75099 13.0952 9.02878 12.8756 8.33914C12.872 8.32706 12.8654 8.30912 12.8577 8.29062C12.7231 7.86046 12.5489 7.4437 12.3374 7.04572C12.1272 6.6538 11.886 6.27937 11.6161 5.92592C11.3948 5.64121 11.1564 5.37026 10.9022 5.11456C10.8472 5.05962 10.7954 5.00797 10.7481 4.96638C10.4333 4.66453 10.0942 4.38892 9.73437 4.14237C9.11295 3.71309 8.43105 3.37875 7.71108 3.1504C7.5371 3.09453 7.35705 3.04473 7.17902 3.00424C6.63647 2.88011 6.08015 2.82648 5.52387 2.84472C5.51803 2.84472 5.48137 2.84635 5.47552 2.84657C4.95652 2.86798 4.44359 2.96635 3.95352 3.13853C3.50854 3.29264 3.09003 3.5144 2.71262 3.79604C2.34461 4.0618 2.02131 4.38453 1.75493 4.7521C1.47242 5.12999 1.24978 5.54916 1.09483 5.9948C0.924717 6.47437 0.827001 6.97657 0.804891 7.48493C0.800099 7.5186 0.797901 7.55258 0.798297 7.5866C0.781813 8.1376 0.835968 8.68842 0.959487 9.22566C0.999971 9.40241 1.04942 9.58246 1.10437 9.75297C1.19545 10.0423 1.3042 10.3257 1.43 10.6017C1.61629 11.0133 1.83941 11.4073 2.09665 11.7788C2.34035 12.1349 2.61275 12.4705 2.91113 12.7821C2.96277 12.8404 3.01442 12.8924 3.06937 12.9473V12.9475C3.32617 13.2026 3.59821 13.4419 3.88402 13.664C4.23695 13.933 4.61072 14.1735 5.0018 14.3832C5.39539 14.5923 5.8074 14.7649 6.23259 14.8986C6.25624 14.9085 6.28046 14.9171 6.30512 14.9242C6.91392 15.1165 7.54817 15.2163 8.18665 15.2202C8.26282 15.2202 8.33865 15.2186 8.41412 15.2156C8.41927 15.2156 8.45333 15.2154 8.45843 15.2152C8.64749 15.2076 8.83211 15.1876 9.01444 15.1622L9.20055 15.1942C10.2029 15.3645 12.0199 15.6744 13.5051 16.7316C13.3474 17.1452 13.4469 17.6127 13.7592 17.9263L18.7576 22.9248C18.7788 22.9462 18.8015 22.9659 18.8256 22.9839C19.2712 23.3617 19.9322 23.3343 20.3448 22.9207L20.8754 22.3901C21.3144 21.9504 21.3144 21.2385 20.8756 20.7989ZM8.44331 14.4654C8.43817 14.4654 8.4041 14.4656 8.399 14.4658C7.76383 14.4869 7.1297 14.3992 6.52407 14.2066C6.50983 14.2002 6.49523 14.1946 6.48029 14.19C6.09131 14.0693 5.71447 13.9123 5.35482 13.7213C5.00066 13.5313 4.6621 13.3135 4.34236 13.07C4.08183 12.8675 3.83387 12.6493 3.59984 12.4167C3.55553 12.3725 3.51355 12.3308 3.4619 12.2729C3.1881 11.9872 2.93812 11.6796 2.71446 11.3531C2.32676 10.7922 2.02513 10.1766 1.81959 9.5265C1.77031 9.37318 1.72636 9.21441 1.69102 9.05964C1.58187 8.58548 1.53387 8.09927 1.54816 7.61293L1.17325 7.59975L1.55093 7.55636C1.56904 7.10919 1.65365 6.6672 1.80201 6.24496C1.93278 5.86855 2.12087 5.51461 2.35973 5.19566C2.58101 4.88977 2.85003 4.62137 3.15645 4.40079C3.47478 4.16294 3.82798 3.97573 4.20354 3.84584C4.62874 3.69709 5.07376 3.61252 5.52387 3.59493C5.53302 3.59493 5.5506 3.59419 5.56783 3.59309V3.59326C6.05386 3.57832 6.53976 3.62627 7.01344 3.73595C7.16949 3.77146 7.3283 3.81542 7.4847 3.86562C8.13381 4.07138 8.74859 4.37288 9.30873 4.76014C9.63898 4.9866 9.95011 5.2398 10.239 5.51712C10.2859 5.55888 10.3275 5.60064 10.3716 5.64495C10.6033 5.87787 10.8205 6.12473 11.0222 6.38417C11.2665 6.70444 11.485 7.04369 11.6755 7.39865C11.8669 7.75874 12.0242 8.13598 12.1453 8.52539C12.1497 8.5402 12.1552 8.55471 12.1616 8.56877L12.1627 8.57225C12.3569 9.1865 12.4442 9.82959 12.4207 10.4734C12.4049 10.9313 12.3201 11.3843 12.1694 11.817C12.041 12.1918 11.8554 12.5446 11.6192 12.8628C11.5059 13.0149 11.3819 13.1587 11.248 13.293C11.1137 13.4266 10.9702 13.5505 10.8185 13.6639C10.4993 13.9006 10.1456 14.0866 9.76975 14.2154C9.34245 14.3642 8.89541 14.4484 8.44331 14.4654ZM14.0897 16.0045L13.9594 16.1348C12.9328 15.4349 11.7779 14.9449 10.5612 14.6932C10.8095 14.5723 11.0461 14.4287 11.2681 14.2643C11.6299 13.9952 11.9504 13.6745 12.2196 13.3127C12.3838 13.0909 12.5272 12.8545 12.648 12.6064C12.8997 13.8231 13.3897 14.978 14.0897 16.0045ZM20.3452 21.8597L19.8146 22.3903C19.6762 22.5298 19.4531 22.5372 19.3058 22.4071C19.2977 22.4 19.2893 22.393 19.2805 22.3866L14.2897 17.3959C14.146 17.2512 14.1442 17.018 14.2858 16.8712C14.2876 16.869 14.2904 16.8684 14.2921 16.8662C14.2937 16.8641 14.294 16.8615 14.2956 16.8594L14.814 16.341C14.8163 16.3393 14.819 16.3388 14.8213 16.337C14.8238 16.335 14.8248 16.3319 14.8273 16.3298C14.9525 16.2141 15.139 16.195 15.285 16.283C15.3091 16.2974 15.3312 16.3148 15.3508 16.3348L20.3452 21.3293C20.4913 21.4758 20.4913 21.7131 20.3452 21.8597Z" fill="#929EAA" stroke="#929EAA" stroke-width="0.5"/>
<path d="M17.4705 7.12317C17.7243 7.12304 17.9771 7.0924 18.2235 7.03196C18.3672 7.00141 18.5079 6.95811 18.644 6.90264C19.0547 6.74307 19.4277 6.49955 19.7389 6.18759C20.0504 5.87906 20.2933 5.50819 20.4515 5.09931C20.5073 4.96291 20.551 4.8219 20.5821 4.67785C20.848 3.60007 20.5277 2.46194 19.7389 1.68092C18.7198 0.664065 17.1455 0.456764 15.8979 1.17524C14.6503 1.89367 14.0394 3.35937 14.4074 4.75121C14.7754 6.14302 16.0309 7.11521 17.4705 7.12317ZM18.7568 6.01018C18.565 5.4965 18.0825 5.14907 17.5345 5.13012C17.0025 5.10313 16.577 4.67833 16.5491 4.14641C16.5356 3.83819 16.6521 3.5384 16.8701 3.32011C17.0881 3.10182 17.3877 2.98498 17.696 2.99804C18.2287 3.02525 18.6543 3.45123 18.6812 3.98395C18.7003 4.53218 19.0482 5.01469 19.5623 5.20612C19.3629 5.53545 19.0864 5.81136 18.7568 6.01018ZM15.7628 2.21134C16.5339 1.43924 17.7246 1.27441 18.6764 1.80808C19.6282 2.34172 20.1087 3.4435 19.8523 4.50413C19.613 4.4287 19.4453 4.21314 19.431 3.96267C19.3948 3.03184 18.6489 2.28537 17.7182 2.24818C17.2038 2.22893 16.7047 2.42471 16.3406 2.7885C15.9765 3.15228 15.7804 3.65128 15.7993 4.16562C15.8359 5.09667 16.5822 5.8431 17.5132 5.87994C17.7638 5.89396 17.9796 6.06157 18.0553 6.30091C17.2311 6.50456 16.3605 6.26008 15.7628 5.65708C14.813 4.70484 14.813 3.16354 15.7628 2.21134Z" fill="#929EAA" stroke="#929EAA" stroke-width="0.5"/>
</svg>
