<svg width="32" height="32" viewBox="0 0 32 32" fill="none" xmlns="http://www.w3.org/2000/svg">
<circle cx="16" cy="16" r="16" fill="white"/>
<path d="M16.9683 21.8283C17.4758 21.8283 17.6833 21.49 17.6775 21.0658C17.6517 19.4683 18.2725 18.6083 19.3933 19.7292C20.6333 20.9692 20.89 21.8283 22.3958 21.8283H25.0625C25.7358 21.8283 26.0008 21.6117 26.0008 21.2717C26.0008 20.5525 24.8167 19.2833 23.8133 18.3517C22.4083 17.0475 22.3425 17.0167 23.5525 15.4467C25.0533 13.4975 27.0167 11 25.28 11H21.9625C21.3192 11 21.2725 11.3625 21.0433 11.9025C20.2142 13.8583 18.6383 16.3917 18.04 16.0042C17.4142 15.6 17.7008 13.9992 17.7483 11.62C17.7608 10.9917 17.7575 10.5608 16.7975 10.3375C16.2733 10.2167 15.7633 10.1667 15.29 10.1667C13.3958 10.1667 12.0892 10.9608 12.8317 11.0992C14.1408 11.3433 14.015 14.1758 13.71 15.3992C13.1783 17.5292 11.18 13.7125 10.3475 11.8117C10.1467 11.355 10.085 11 9.36833 11H6.65583C6.24583 11 6 11.1333 6 11.43C6 11.9317 8.46667 17.03 10.8217 19.5717C13.1183 22.0508 15.3883 21.8283 16.9683 21.8283Z" fill="#4A66CD"/>
</svg>
